<mxfile host="app.diagrams.net" modified="2021-04-11T13:46:44.427Z" agent="5.0 (Windows NT 10.0; Win64; x64) AppleWebKit/537.36 (KHTML, like Gecko) Chrome/88.0.4324.182 Safari/537.36 OPR/74.0.3911.203" etag="R1kXxnvWCdScMrvdSSrN" version="14.5.10" type="github">
  <diagram id="Jdpy7drhXA22xz2mAAPi" name="Page-1">
    <mxGraphModel dx="2253" dy="783" grid="1" gridSize="10" guides="1" tooltips="1" connect="1" arrows="1" fold="1" page="1" pageScale="1" pageWidth="827" pageHeight="1169" math="0" shadow="0">
      <root>
        <mxCell id="0" />
        <mxCell id="1" parent="0" />
        <mxCell id="rJ81UgAGEvQx7qFqxQZ4-26" value="Ground Station Interface" style="strokeWidth=1;shadow=0;dashed=0;align=center;html=1;shape=mxgraph.mockup.containers.window;align=left;verticalAlign=top;spacingLeft=8;strokeColor2=#008cff;strokeColor3=#c4c4c4;fontColor=#666666;mainText=;fontSize=17;labelBackgroundColor=none;fillColor=#ffffff;" vertex="1" parent="1">
          <mxGeometry x="-10" y="10" width="1020" height="720" as="geometry" />
        </mxCell>
        <mxCell id="rJ81UgAGEvQx7qFqxQZ4-41" value="" style="rounded=0;whiteSpace=wrap;html=1;fillColor=none;" vertex="1" parent="1">
          <mxGeometry x="20" y="620" width="900" height="100" as="geometry" />
        </mxCell>
        <mxCell id="rJ81UgAGEvQx7qFqxQZ4-28" value="" style="shape=image;html=1;verticalAlign=top;verticalLabelPosition=bottom;labelBackgroundColor=#ffffff;imageAspect=0;aspect=fixed;image=https://cdn0.iconfinder.com/data/icons/business-management-3-4/256/m-52-128.png;fillColor=#ffffff;" vertex="1" parent="1">
          <mxGeometry x="557.5" y="145" width="210" height="210" as="geometry" />
        </mxCell>
        <mxCell id="rJ81UgAGEvQx7qFqxQZ4-29" value="&lt;br&gt;Video" style="html=1;strokeColor=none;fillColor=#0079D6;labelPosition=center;verticalLabelPosition=middle;verticalAlign=top;align=center;fontSize=12;outlineConnect=0;spacingTop=-6;fontColor=#FFFFFF;shape=mxgraph.sitemap.video;" vertex="1" parent="1">
          <mxGeometry x="20" y="60" width="480" height="320" as="geometry" />
        </mxCell>
        <mxCell id="rJ81UgAGEvQx7qFqxQZ4-30" value="Basınç Grafiği" style="text;html=1;strokeColor=none;fillColor=none;align=center;verticalAlign=middle;whiteSpace=wrap;rounded=0;" vertex="1" parent="1">
          <mxGeometry x="610" y="355" width="105" height="10" as="geometry" />
        </mxCell>
        <mxCell id="rJ81UgAGEvQx7qFqxQZ4-31" value="" style="shape=image;html=1;verticalAlign=top;verticalLabelPosition=bottom;labelBackgroundColor=#ffffff;imageAspect=0;aspect=fixed;image=https://cdn0.iconfinder.com/data/icons/business-management-3-4/256/m-52-128.png;fillColor=#ffffff;" vertex="1" parent="1">
          <mxGeometry x="765" y="145" width="210" height="210" as="geometry" />
        </mxCell>
        <mxCell id="rJ81UgAGEvQx7qFqxQZ4-32" value="Yükseklik Grafiği" style="text;html=1;strokeColor=none;fillColor=none;align=center;verticalAlign=middle;whiteSpace=wrap;rounded=0;" vertex="1" parent="1">
          <mxGeometry x="812.5" y="355" width="105" height="10" as="geometry" />
        </mxCell>
        <mxCell id="rJ81UgAGEvQx7qFqxQZ4-33" value="" style="shape=image;html=1;verticalAlign=top;verticalLabelPosition=bottom;labelBackgroundColor=#ffffff;imageAspect=0;aspect=fixed;image=https://cdn0.iconfinder.com/data/icons/business-management-3-4/256/m-52-128.png;fillColor=#ffffff;" vertex="1" parent="1">
          <mxGeometry x="557.5" y="365" width="210" height="210" as="geometry" />
        </mxCell>
        <mxCell id="rJ81UgAGEvQx7qFqxQZ4-34" value="İniş Hızı Grafiği" style="text;html=1;strokeColor=none;fillColor=none;align=center;verticalAlign=middle;whiteSpace=wrap;rounded=0;" vertex="1" parent="1">
          <mxGeometry x="610" y="575" width="105" height="10" as="geometry" />
        </mxCell>
        <mxCell id="rJ81UgAGEvQx7qFqxQZ4-35" value="" style="shape=image;html=1;verticalAlign=top;verticalLabelPosition=bottom;labelBackgroundColor=#ffffff;imageAspect=0;aspect=fixed;image=https://cdn0.iconfinder.com/data/icons/business-management-3-4/256/m-52-128.png;fillColor=#ffffff;" vertex="1" parent="1">
          <mxGeometry x="767.5" y="367.5" width="205" height="205" as="geometry" />
        </mxCell>
        <mxCell id="rJ81UgAGEvQx7qFqxQZ4-36" value="Sıcaklık Grafiği" style="text;html=1;strokeColor=none;fillColor=none;align=center;verticalAlign=middle;whiteSpace=wrap;rounded=0;" vertex="1" parent="1">
          <mxGeometry x="817.5" y="565" width="105" height="10" as="geometry" />
        </mxCell>
        <mxCell id="rJ81UgAGEvQx7qFqxQZ4-40" value="" style="html=1;verticalLabelPosition=bottom;labelBackgroundColor=#ffffff;verticalAlign=top;shadow=0;dashed=0;strokeWidth=2;shape=mxgraph.ios7.misc.scroll_(vertical);fillColor=#a0a0a0;" vertex="1" parent="1">
          <mxGeometry x="914" y="625" width="6" height="50" as="geometry" />
        </mxCell>
        <mxCell id="rJ81UgAGEvQx7qFqxQZ4-44" value="&amp;lt;TAKIM NO&amp;gt;,&amp;lt;PAKET NUMARASI&amp;gt;,&amp;lt;GÖNDERME SAATİ&amp;gt;,&amp;lt;BASINÇ&amp;gt;,&amp;lt;YÜKSEKLİK&amp;gt;,&amp;lt;İNİŞ HIZI&amp;gt;, &amp;lt;SICAKLIK&amp;gt;,&amp;lt;PİL GERİLİMİ&amp;gt;,&amp;lt;GPS LATITUDE&amp;gt;,&amp;lt;GPS LONGITUDE&amp;gt;,&amp;lt;GPS ALTITUDE&amp;gt;,&amp;lt;UYDU STATÜSÜ&amp;gt;,&amp;lt;PITCH&amp;gt;,&amp;lt;ROLL&amp;gt;,&amp;lt;YAW&amp;gt;,&amp;lt;DÖNÜŞ SAYISI&amp;gt;,&amp;lt;VİDEO AKTARIM BİLGİSİ&amp;gt;" style="text;html=1;strokeColor=none;fillColor=none;align=center;verticalAlign=middle;whiteSpace=wrap;rounded=0;" vertex="1" parent="1">
          <mxGeometry x="30" y="630" width="875" height="40" as="geometry" />
        </mxCell>
        <mxCell id="rJ81UgAGEvQx7qFqxQZ4-45" value="&amp;lt;TAKIM NO&amp;gt;,&amp;lt;PAKET NUMARASI&amp;gt;,&amp;lt;GÖNDERME SAATİ&amp;gt;,&amp;lt;BASINÇ&amp;gt;,&amp;lt;YÜKSEKLİK&amp;gt;,&amp;lt;İNİŞ HIZI&amp;gt;, &amp;lt;SICAKLIK&amp;gt;,&amp;lt;PİL GERİLİMİ&amp;gt;,&amp;lt;GPS LATITUDE&amp;gt;,&amp;lt;GPS LONGITUDE&amp;gt;,&amp;lt;GPS ALTITUDE&amp;gt;,&amp;lt;UYDU STATÜSÜ&amp;gt;,&amp;lt;PITCH&amp;gt;,&amp;lt;ROLL&amp;gt;,&amp;lt;YAW&amp;gt;,&amp;lt;DÖNÜŞ SAYISI&amp;gt;,&amp;lt;VİDEO AKTARIM BİLGİSİ&amp;gt;" style="text;html=1;strokeColor=none;fillColor=none;align=center;verticalAlign=middle;whiteSpace=wrap;rounded=0;" vertex="1" parent="1">
          <mxGeometry x="30" y="670" width="875" height="50" as="geometry" />
        </mxCell>
        <mxCell id="rJ81UgAGEvQx7qFqxQZ4-46" value="Telemteri Verileri" style="text;html=1;strokeColor=none;fillColor=none;align=center;verticalAlign=middle;whiteSpace=wrap;rounded=0;" vertex="1" parent="1">
          <mxGeometry x="30" y="600" width="130" height="20" as="geometry" />
        </mxCell>
        <mxCell id="rJ81UgAGEvQx7qFqxQZ4-52" value="" style="rounded=0;whiteSpace=wrap;html=1;fillColor=none;" vertex="1" parent="1">
          <mxGeometry x="90" y="390" width="310" height="200" as="geometry" />
        </mxCell>
        <mxCell id="rJ81UgAGEvQx7qFqxQZ4-53" value="" style="shape=cylinder3;whiteSpace=wrap;html=1;boundedLbl=1;backgroundOutline=1;size=15;fillColor=none;" vertex="1" parent="1">
          <mxGeometry x="202.5" y="425" width="85" height="130" as="geometry" />
        </mxCell>
        <mxCell id="rJ81UgAGEvQx7qFqxQZ4-58" value="" style="shape=image;verticalLabelPosition=bottom;verticalAlign=top;imageAspect=0;aspect=fixed;image=data:image/jpeg,/9j/4AAQSkZJRgABAQEASABIAAD/4QAiRXhpZgAATU0AKgAAAAgAAQESAAMAAAABAAEAAAAAAAD/4Qm+aHR0cDovL25zLmFkb2JlLmNvbS94YXAvMS4wLwA8P3hwYWNrZXQgYmVnaW49Iu+7vyIgaWQ9Ilc1TTBNcENlaGlIenJlU3pOVGN6a2M5ZCI/Pg0KPHg6eG1wbWV0YSB4bWxuczp4PSJhZG9iZTpuczptZXRhLyIgeDp4bXB0az0iWE1QIENvcmUgNC40LjAtRXhpdjIiPg0KCTxyZGY6UkRGIHhtbG5zOnJkZj0iaHR0cDovL3d3dy53My5vcmcvMTk5OS8wMi8yMi1yZGYtc3ludGF4LW5zIyI+DQoJCTxyZGY6RGVzY3JpcHRpb24gcmRmOmFib3V0PSIiIHhtbG5zOmRjPSJodHRwOi8vcHVybC5vcmcvZGMvZWxlbWVudHMvMS4xLyI+DQoJCQk8ZGM6Y3JlYXRvcj4NCgkJCQk8cmRmOlNlcT4NCgkJCQkJPHJkZjpsaT5WZWN0b3JTdG9jay5jb20vMTc3MjEzMjU8L3JkZjpsaT4NCgkJCQk8L3JkZjpTZXE+DQoJCQk8L2RjOmNyZWF0b3I+DQoJCTwvcmRmOkRlc2NyaXB0aW9uPg0KCTwvcmRmOlJERj4NCjwveDp4bXBtZXRhPg0KICAgICAgICAgICAgICAgICAgICAgICAgICAgICAgICAgICAgICAgICAgICAgICAgICAgICAgICAgICAgICAgICAgICAgICAgICAgICAgICAgICAgICAgICAgICAgICAgICAgIAogICAgICAgICAgICAgICAgICAgICAgICAgICAgICAgICAgICAgICAgICAgICAgICAgICAgICAgICAgICAgICAgICAgICAgICAgICAgICAgICAgICAgICAgICAgICAgICAgICAgCiAgICAgICAgICAgICAgICAgICAgICAgICAgICAgICAgICAgICAgICAgICAgICAgICAgICAgICAgICAgICAgICAgICAgICAgICAgICAgICAgICAgICAgICAgICAgICAgICAgICAKICAgICAgICAgICAgICAgICAgICAgICAgICAgICAgICAgICAgICAgICAgICAgICAgICAgICAgICAgICAgICAgICAgICAgICAgICAgICAgICAgICAgICAgICAgICAgICAgICAgIAogICAgICAgICAgICAgICAgICAgICAgICAgICAgICAgICAgICAgICAgICAgICAgICAgICAgICAgICAgICAgICAgICAgICAgICAgICAgICAgICAgICAgICAgICAgICAgICAgICAgCiAgICAgICAgICAgICAgICAgICAgICAgICAgICAgICAgICAgICAgICAgICAgICAgICAgICAgICAgICAgICAgICAgICAgICAgICAgICAgICAgICAgICAgICAgICAgICAgICAgICAKICAgICAgICAgICAgICAgICAgICAgICAgICAgICAgICAgICAgICAgICAgICAgICAgICAgICAgICAgICAgICAgICAgICAgICAgICAgICAgICAgICAgICAgICAgICAgICAgICAgIAogICAgICAgICAgICAgICAgICAgICAgICAgICAgICAgICAgICAgICAgICAgICAgICAgICAgICAgICAgICAgICAgICAgICAgICAgICAgICAgICAgICAgICAgICAgICAgICAgICAgCiAgICAgICAgICAgICAgICAgICAgICAgICAgICAgICAgICAgICAgICAgICAgICAgICAgICAgICAgICAgICAgICAgICAgICAgICAgICAgICAgICAgICAgICAgICAgICAgICAgICAKICAgICAgICAgICAgICAgICAgICAgICAgICAgICAgICAgICAgICAgICAgICAgICAgICAgICAgICAgICAgICAgICAgICAgICAgICAgICAgICAgICAgICAgICAgICAgICAgICAgIAogICAgICAgICAgICAgICAgICAgICAgICAgICAgICAgICAgICAgICAgICAgICAgICAgICAgICAgICAgICAgICAgICAgICAgICAgICAgICAgICAgICAgICAgICAgICAgICAgICAgCiAgICAgICAgICAgICAgICAgICAgICAgICAgICAgICAgICAgICAgICAgICAgICAgICAgICAgICAgICAgICAgICAgICAgICAgICAgICAgICAgICAgICAgICAgICAgICAgICAgICAKICAgICAgICAgICAgICAgICAgICAgICAgICAgICAgICAgICAgICAgICAgICAgICAgICAgICAgICAgICAgICAgICAgICAgICAgICAgICAgICAgICAgICAgICAgICAgICAgICAgIAogICAgICAgICAgICAgICAgICAgICAgICAgICAgICAgICAgICAgICAgICAgICAgICAgICAgICAgICAgICAgICAgICAgICAgICAgICAgICAgICAgICAgICAgICAgICAgICAgICAgCiAgICAgICAgICAgICAgICAgICAgICAgICAgICAgICAgICAgICAgICAgICAgICAgICAgICAgICAgICAgICAgICAgICAgICAgICAgICAgICAgICAgICAgICAgICAgICAgICAgICAKICAgICAgICAgICAgICAgICAgICAgICAgICAgICAgICAgICAgICAgICAgICAgICAgICAgICAgICAgICAgICAgICAgICAgICAgICAgICAgICAgICAgICAgICAgICAgICAgICAgIAogICAgICAgICAgICAgICAgICAgICAgICAgICAgICAgICAgICAgICAgICAgICAgICAgICAgICAgICAgICAgICAgICAgICAgICAgICAgICAgICAgICAgICAgICAgICAgICAgICAgCiAgICAgICAgICAgICAgICAgICAgICAgICAgICAgICAgICAgICAgICAgICAgICAgICAgICAgICAgICAgICAgICAgICAgICAgICAgICAgICAgICAgICAgICAgICAgICAgICAgICAKICAgICAgICAgICAgICAgICAgICAgICAgICAgICAgICAgICAgICAgICAgICAgICAgICAgICAgICAgICAgICAgICAgICAgICAgICAgICAgICAgICAgICAgICAgICAgICAgICAgIAogICAgICAgICAgICAgICAgICAgICAgICAgICAgICAgICAgICAgICAgICAgICAgICAgICAgICAgICAgICAgICAgICAgICAgICAgICAgICAgICAgICAgICAgICAgIDw/eHBhY2tldCBlbmQ9J3cnPz7/7AARRHVja3kAAQAEAAAAZAAA/9sAQwACAQECAQECAgICAgICAgMFAwMDAwMGBAQDBQcGBwcHBgcHCAkLCQgICggHBwoNCgoLDAwMDAcJDg8NDA4LDAwM/9sAQwECAgIDAwMGAwMGDAgHCAwMDAwMDAwMDAwMDAwMDAwMDAwMDAwMDAwMDAwMDAwMDAwMDAwMDAwMDAwMDAwMDAwM/8AAEQgCpAMSAwEiAAIRAQMRAf/EAB8AAAEFAQEBAQEBAAAAAAAAAAABAgMEBQYHCAkKC//EALUQAAIBAwMCBAMFBQQEAAABfQECAwAEEQUSITFBBhNRYQcicRQygZGhCCNCscEVUtHwJDNicoIJChYXGBkaJSYnKCkqNDU2Nzg5OkNERUZHSElKU1RVVldYWVpjZGVmZ2hpanN0dXZ3eHl6g4SFhoeIiYqSk5SVlpeYmZqio6Slpqeoqaqys7S1tre4ubrCw8TFxsfIycrS09TV1tfY2drh4uPk5ebn6Onq8fLz9PX29/j5+v/EAB8BAAMBAQEBAQEBAQEAAAAAAAABAgMEBQYHCAkKC//EALURAAIBAgQEAwQHBQQEAAECdwABAgMRBAUhMQYSQVEHYXETIjKBCBRCkaGxwQkjM1LwFWJy0QoWJDThJfEXGBkaJicoKSo1Njc4OTpDREVGR0hJSlNUVVZXWFlaY2RlZmdoaWpzdHV2d3h5eoKDhIWGh4iJipKTlJWWl5iZmqKjpKWmp6ipqrKztLW2t7i5usLDxMXGx8jJytLT1NXW19jZ2uLj5OXm5+jp6vLz9PX29/j5+v/aAAwDAQACEQMRAD8A/fyiiigAooooAKKKKACiiigAooooAKKKKACiiigAooooAKKKKACiiigAooooAKKKKACiiigAooooAKKKKACiiigAooooAKKKKACiiigAooooAKKKKACiiigAooooAKKKKACikc7VrOg8TWMviF9LF9ZtqKQC6NoJl+0CEsVEuzO7YWUgNjGQR1FHoBpUUUUAFFFFABRRRQAUUUUAFFFFABRRRQAUUUUAFFFFABRRRQAUUUUAFFFFABRRRQAUUUUAFFFFABRRRQAUUUUAFFFFABRRRQAUUUUAFFFFABRRRQAUUUUAFFFFABRRRQAUUUUAFFFFABRRRQAUUUUAFFFFABRRRQAUUUUAFFFFABRRRQAUUUUAFFFFABRRRQAUUUUAFFFFABRRRQAUUUUAFFFFABRRRQAUUUUAFFFFABRRRQAUUUUAFFFFABRRRQAUUUjHAoASZtsbfSvxO8Gf8FSlvf8Ag4LufEjakG8B6rcN8MomEn7n7KsmyKcHptbUAZM9llPrX6Tf8FU/2qv+GP8A9hXx74vhuFh1uSyOkaIN20vf3X7mEqfVCxk/3Yya/mGillt3WSOaSOaMjZMpPmI46OD2IIByOdwr9R8P+H4YzD4ivXWkk6a+duZ+q0t8zxc1xTpyhGO61P7AoXJP6c1JXhX/AATe/aii/bF/Yx8A+PPMV9Q1LTVt9VRSD5V/ATDcD2/eIzAf3WU9691r80xGHnh606FT4otp+q0PYhNTipLqFFFFYlBRRRQAUUUUAFFFFABRRRQAUUUUAFFFFABRRRQAUUUUAFFFFABRRRQAUUUUAFFFFABRRRQAUUUUAFFFFABRRRQAUUUUAFFFFABRRRQAUUUUAFFFFABRRRQAUUUUAFFFFABRRRQAUUUUAFFFFABRRRQAUUUUAFFFFABRRRQAUUUUAFFFFABRRRQAUUUUAFFFFABRRRQAUUUUAFFFFABRRRQAUUUUAFFFFABRRRQAUUUUAFFFFABRRRQAU2XmNv6U6s7xd4lsfBvhfUdX1O4S103SraS8u53OFhijUu7n2CqT+FFm9EGx+L3/AAc//tTDxN8VvBPwg0643W3hi2PiHWFRuPtVwDHbIw/2YRI49p1r8qd2wZ+b5eeOvr/n3r0L9rH9oG9/as/aT8bfES+8wSeLNWlv4Y2bJtrY/Lbw8/3IVjXHqK89Bwa/qLh/LFl+X0sL1itf8T1f4t/I+LxVb2tVz/q3Q/XD/g11/anGm+I/Hnwb1C42x3iDxToqFhhpECw3iKOuSvkPj/Zc+tfssrEmv5Tf2If2kbj9kP8Aax8C/ESBpBD4c1NWv0Q4M1lKPKuU/GF3x7gHrzX9VGi6xb69ptteWc8d1aXkazQyocrKjLuVge4IIII7V+P+JGV/V8xWKivdqr/yZaP8LP1bPeyitzUuR7x/IuUUUV+enrBRRRQAUUUUAFFFFABRRRQAUUUUAFFFFABRRRQAUUUUAFFFFABRRRQAUUUUAFFFFABRRRQAUUUUAFFFFABRRRQAUUUUAFFFFABRRRQAUUUUAFFFFABRRRQAUUUUAFFFFABRRRQAUUUUAFFFFABRRRQAUUUUAFFFFABRRRQAUUUUAFFFFABRRRQAUUUUAFFFFABRRRQAUUUUAFFFFABRRRQAUUUUAFFFFABRRRQAUUUUAFFFFABRRRQAjnC+lfBX/Bw/+1P/AMKD/YLvPDNlc+XrnxQul0CBQ21haAebeOCO3lgRk/8ATcY5r70k/wBW30r+ef8A4OGP2pf+F/8A7fF74bsbjzND+FtqNBiVWyjXr7Zrt8f3gxjiP/XGvruB8r+u5tT5vhp++/lt/wCTWODMq3s6Dtu9D4RIx68fr70UUV/Rx8kCj5l4B6DB7j0r+ir/AIIDftT/APDR/wDwT88P6bfXRn1/4cyHwxfBzmRoYlDWjt9bdo15/ijav51QNxwehODxmv0F/wCDcP8Aap/4Un+25N4Jvrry9F+KdgbNVZvl/tC3DTWxGf4mTz4s9y6CvjePMr+uZTOUV71P318t/wAG/uR6GW1vZ11fZ6H9AdFRxPvxzkVJX86n1gUUUUAFFFFABRRRQAUUUUAFFFFABRRRQAUUUUAFFFFABRRRQAUUUUAFFFFABRRRQAUUUUAFFFFABRRRQAUUUUAFFFFABRRRQAUUUUAFFFFABRRRQAUUUUAFFFFABRRRQAUUUUAFFFFABRRRQAUUUUAFFFFABRRRQAUUUUAFFFFABRRRQAUUUUAFFFFABRRRQAUUUUAFFFFABRRRQAUUUUAFFFFABRRRQAUUUUAFFFFABRRRQAUUUUAecfteftC6f+yj+zN43+Iup7Da+EdJmv1jfpcTAYhi+rymNB7tX8pnibxHqHjLxPqWsarcNdatqt1Ne30rNuM08kheRv8Avpj15yemK/rn8ZeD9J8f+F77Rdc0yx1nSNSiMF3ZXsCz29zGeqOjAqwPoRX53ftNf8G03wc+LOpXGoeA9Y1/4YXszFvslvjUtLU/7EEpDx9+EkCj0xxX6JwLxJl2WKpDF3Upte9a6sujS1Wrfe/lY8nM8JVrWdPZdD8G6K/R74xf8Gzvxg+HGiapq2k+OPh74g03S7aW6k837XY3JjjQufk8uRd21TgbsE+nWvzfhfzYEk42su4nPQcfX+v0r9my7N8Hj4uWDqKaW9ul9tHqfP1sPUpO1RWHdfX8K1vAfjnVPhh460bxNos7W+seHr+DVLKZePLmhcSJz6blGQOo/Cv0S+F//BsT8YPF9vZXWveOvh94fs7xFkItxd6hcIrKD93ZEmcEcF+vfFfY37L/APwbY/Bf4O6lb6l441DXPihqMLBhBfgWOlggcZtoiWfnnEkrKe4PSvn8w46yahBp1Od9opu/zdl+J1UstxEntbzZ9v8A7N3xw0v9pD4GeD/HmjSLJpvi7SbfU4Qp3eUZEDNGSOMo25D7qa7us/wz4W03wZoNnpek2Nnpmm6fEsFraWsKwwW8ajAREUBVUegFaFfzzWcHUk6atG7snul0v8j6uN7ahRRRWYwooooAKKKKACiiigAooooAKKKKACiiigAooooAKKKKACiiigAooooAKKKKACiiigAooooAKKKKACiiigAooooAKKKKACiiigAooooAKKKKACiiigAooooAKKKKACiiigAooooAKKKKACiiigAooooAKKKKACiiigAooooAKKKKACiiigAooooAKKKKACiiigAooooAKKKKACiiigAooooAKKKKACiiigAooooAKKKKACiiigAIyKQIAaWigDlPjkgHwX8W8f8AMFvce3+jyV/I5afNp8G75v3SdeewFf1yfHP/AJIv4u/7At7/AOk8lfyN2f8AyD4P+uS/yr9j8K/4WJ9YflI+fzr44fP9D+vjwQgPhDSTj/lzh/8ARa1q7AKyvA//ACJ2k/8AXnD/AOi1rWr8cl8T9T3o7BRRRQUFFFFABRRRQAUUUUAFFFFABRRRQAUUUUAFFFFABRRRQAUUUUAFFFFABRRRQAUUUUAFFFFABRRRQAUUUUAFFFFABRRRQAUUUUAFFFFABRRRQAUUUUAFFFFABRRRQAUUUUAFFFFABRRRQAUUUUAFFFFABRRRQAUUUUAFFFFABRRRQAUUUUAFFFFABRRRQAUUUUAFFFFABRRRQAUUUUAFFFFABRRRQAUUUUAFFFFABRRRQAUUUUAFFFFABRRRQByvxz/5Iv4u/wCwLe/+k8lfyN2f/IPg/wCuS/yr+uT45/8AJF/F3/YFvf8A0nkr+Ruz/wCQfB/1yX+VfsfhX/DxPrD/ANuPAzr44fP9D+vjwP8A8idpP/XnD/6LWtasnwP/AMidpP8A15w/+i1rWr8dl8T9T3Y7IKKKKRQUUUUAFFFFABRRRQAUUUUAFFFFABRRRQAUUUUAFFFFABRRRQAUUUUAFFFFABRRRQAUUUUAFFFFABRRRQAUUUUAFFFFABRRRQAUUUUAFFFFABRRRQAUUUUAFFFFABRRRQAUUUUAFFFFABRRRQAUUUUAFFFFABRRRQAUUUUAFFFFABRRRQAUUUUAFFFFABRRRQAUUUUAFFFFABRRRQAUUUUAFFFFABRRRQAUUUUAFFFFABRRRQAUUUUAFFFFAHK/HP8A5Iv4u/7At7/6TyV/I3Z/8g+D/rkv8q/rk+Of/JF/F3/YFvf/AEnkr+Ruz/5B8H/XJf5V+x+Ff8PE+sP/AG48DOvjh8/0P6+PA/8AyJ2k/wDXnD/6LWtasnwP/wAidpP/AF5w/wDota1q/HZfE/U92OyCiiikUFFFFABRRRQAUUUUAFFFFABRRRQAUUUUAFFFFABRRRQAUUUUAFFFFABRRRQAUUUUAFFFFABRRRQAUUUUAFFFFABRRRQAUUUUAFFFFABRRRQAUUUUAFFFFABRRRQAUUUUAFFFFABRRRQAUUUUAFFFFABRRRQAUUUUAFFFFABRRRQAUUUUAFFFFABRRRQAUUUUAFFFFABRRRQAUUUUAFFFFABRRRQAUUUUAFFFFABRRRQAUUUUAFFFFABRRRQByvxz/wCSL+Lv+wLe/wDpPJX8jdn/AMg+D/rkv8q/rk+Of/JF/F3/AGBb3/0nkr+Ruz/5B8H/AFyX+VfsfhX/AA8T6w/9uPAzr44fP9D+vjwP/wAidpP/AF5w/wDota1qyfA//InaT/15w/8Aota1q/HZfE/U92OyCiiikUFFFFABRRRQAUUUUAFFFFABRRRQAUUUUAFFFFABRRRQAUUUUAFFFFABRRRQAUUUUAFFFFABRRRQAUUUUAFFFFABRRRQAUUUUAFFFFABRRRQAUUUUAFFFFABRRRQAUUUUAFFFFABRRRQAUUUUAFFFFABRRRQAUUUUAFFFFABRRRQAUUUUAFFFFABRRRQAUUUUAFFFFABRRRQAUUUUAFFFFABRRRQAUUUUAFFFFABRRRQAUUUUAFFFFABRRRQByvxz/5Iv4u/7At7/wCk8lfyN2f/ACD4P+uS/wAq/rk+Of8AyRfxd/2Bb3/0nkr+Ruz/AOQfB/1yX+VfsfhX/DxPrD/248DOvjh8/wBD+vjwP/yJ2k/9ecP/AKLWtasnwP8A8idpP/XnD/6LWtavx2XxP1PdjsgooopFBRRRQAUUUUAFFFFABRRRQAUUUUAFFFFABRRRQAUUUUAFFFFABRRRQAUUUUAFFFFABRRRQAUUUUAFFFFABRRRQAUUUUAFFFFABRRRQAUUUUAFFFFABRRRQAUUUUAFFFFABRRRQAUUUUAFFFFABRRRQAUUUUAFFFFABRRRQAUUUUAFFFFABRRRQAUUUUAFFFFABRRRQAUUUUAFFFFABRRRQAUUUUAFFFFABRRRQAUUUUAFFFFABRRRQAUUUUAcr8c/+SL+Lv8AsC3v/pPJX8jdn/yD4P8Arkv8q/rk+Of/ACRfxd/2Bb3/ANJ5K/kbs/8AkHwf9cl/lX7H4V/w8T6w/wDbjwM6+OHz/Q/r48D/APInaT/15w/+i1rWrJ8D/wDInaT/ANecP/ota1q/HZfE/U92OyCiiikUFFFFABRRRQAUUUUAFFFFABRRRQAUUUUAFFFFABRRRQAUUUUAFFFFABRRRQAUUUUAFFFFABRRRQAUUUUAFFFFABRRRQAUUUUAFFFFABRRRQAUUUUAFFFFABRRRQAUUUUAFFFFABRRRQAUUUUAFFFFABRRRQAUUUUAFFFFABRRRQAUUUUAFFFFABRRRQAUUUUAFFFFABRRRQAUUUUAFFFFABRRRQAUUUUAFFFFABRRRQAUUUUAFFFFABRRRQByvxz/AOSL+Lv+wLe/+k8lfyN2f/IPg/65L/Kv65Pjn/yRfxd/2Bb3/wBJ5K/kbs/+QfB/1yX+VfsfhX/DxPrD/wBuPAzr44fP9D+vjwP/AMidpP8A15w/+i1rWrJ8D/8AInaT/wBecP8A6LWtavx2XxP1PdjsgooopFBRRRQAUUUUAFFFFABRRRQAUUUUAFFFFABRRRQAUUUUAFFFFABRRRQAUUUUAFFFFABRRRQAUUUUAFFFFABRRRQAUUUUAFFFFABRRRQAUUUUAFFFFABRRRQAUUUUAFFFFABRRRQAUUUUAFFFFABRRRQAUUUUAFFFFABRRRQAUUUUAFFFFABRRRQAUUUUAFFFFABRRRQAUUUUAFFFFABRRRQAUUUUAFFFFABRRRQAUUUUAFFFFABRRRQAUUUUAcr8c/8Aki/i7/sC3v8A6TyV/I3Z/wDIPg/65L/Kv65Pjn/yRfxd/wBgW9/9J5K/kbs/+QfB/wBcl/lX7H4V/wAPE+sP/bjwM6+OHz/Q/r48D/8AInaT/wBecP8A6LWtasnwP/yJ2k/9ecP/AKLWtavx2XxP1PdjsgooopFBRRRQAUUUUAFFFFABRRRQAUUUUAFFFFABRRRQAUUUUAFFFFABRRRQAUUUUAFFFFABRRRQAUUUUAFFFFABRRRQAUUUUAFFFFABRRRQAUUUUAFFFFABRRRQAUUUUAFFFFABRRRQAUUUUAFFFFABRRRQAUUUUAFFFFABRRRQAUUUUAFFFFABRRRQAUUUUAFFFFABRRRQAUUUUAFFFFABRRRQAUUUUAFFFFABRRRQAUUUUAFFFFABRRRQAUUUUAcr8c/+SL+Lv+wLe/8ApPJX8jdn/wAg+D/rkv8AKv65Pjn/AMkX8Xf9gW9/9J5K/kbs/wDkHwf9cl/lX7H4V/w8T6w/9uPAzr44fP8AQ/r48D/8idpP/XnD/wCi1rWrJ8D/APInaT/15w/+i1rWr8dl8T9T3Y7IKKKKRQUUUUAFFFFABRRRQAUUUUAFFFFABRRRQAUUUUAFFFFABRRRQAUUUUAFFFFABRRRQAUUUUAFFFFABRRRQAUUUUAFFFFABRRRQAUUUUAFFFFABRRRQAUUUUAFFFFABRRRQAUUUUAFFFFABRRRQAUUUUAFFFFABRRRQAUUUUAFFFFABRRRQAUUUUAFFFFABRRRQAUUUUAFFFFABRRRQAUUUUAFFFFABRRRQAUUUUAFFFFABRRRQAUUUUAFFFFAHK/HP/ki/i7/ALAt7/6TyV/I3Z/8g+D/AK5L/Kv65Pjn/wAkX8Xf9gW9/wDSeSv5G7P/AJB8H/XJf5V+x+Ff8PE+sP8A248DOvjh8/0P6+PA/wDyJ2k/9ecP/ota1qyfA/8AyJ2k/wDXnD/6LWtavx2XxP1PdjsgooopFBRRRQAUUUUAFFFFABRRRQAUUUUAFFFFABRRRQAUUUUAFFFFABRRRQAUUUUAFFFFABRRRQAUUUUAFFFFABRRRQAUUUUAFFFFABRRRQAUUUUAFFFFABRRRQAUUUUAFFFFABRRRQAUUUUAFFFFABRRRQAUUUUAFFFFABRRRQAUUUUAFFFFABRRRQAUUUUAFFFFABRRRQAUUUUAFFFFABRRRQAUUUUAFFFFABRRRQAUUUUAFFFFABRRRQAUUUUAcr8c/wDki/i7/sC3v/pPJX8jdn/yD4P+uS/yr+uT45/8kX8Xf9gW9/8ASeSv5G7P/kHwf9cl/lX7H4V/w8T6w/8AbjwM6+OHz/Q/r48D/wDInaT/ANecP/ota1qyfA//ACJ2k/8AXnD/AOi1rWr8dl8T9T3Y7IKKKKRQUUUUAFFFFABRRRQAUUUUAFFFFABRRRQAUUUUAFFFFABRRRQAUUUUAFFFFABRRRQAUUUUAFFFFABRRRQAUUUUAFFFFABRRRQAUUUUAFFFFABRRRQAUUUUAFFFFABRRRQAUUUUAFFFFABRRRQAUUUUAFFFFABRRRQAUUUUAFFFFABRRRQAUUUUAFFFFABRRRQAUUUUAFFFFABRRRQAUUUUAFFFFABRRRQAUUUUAFFFFABRRRQAUUUUAFFFFAHK/HP/AJIv4u/7At7/AOk8lfyN2f8AyD4P+uS/yr+uT45/8kX8Xf8AYFvf/SeSv5G7P/kHwf8AXJf5V+x+Ff8ADxPrD/248DOvjh8/0P6+PA//ACJ2k/8AXnD/AOi1rWrJ8D/8idpP/XnD/wCi1rWr8dl8T9T3Y7IKKKKRQUUUUAFFFFABRRRQAUUUUAFFFFABRRRQAUUUUAFFFFABRRRQAUUUUAFFFFABRRRQAUUUUAFFFFABRRRQAUUUUAFFFFABRRRQAUUUUAFFFFABRRRQAUUUUAFFFFABRRRQAUUUUAFFFFABRRRQAUUUUAFFFFABRRRQAUUUUAFFFFABRRRQAUUUUAFFFFABRRRQAUUUUAFFFFABRRRQAUUUUAFFFFABRRRQAUUUUAFFFFABRRRQAUUUUAFFFFAHK/HP/ki/i7/sC3v/AKTyV/I3Z/8AIPg/65L/ACr+uT45/wDJF/F3/YFvf/SeSv5G7P8A5B8H/XJf5V+x+Ff8PE+sP/bjwM6+OHz/AEP6+PA//InaT/15w/8Aota1qyfA/wDyJ2k/9ecP/ota1q/HZfE/U92OyCiiikUFFFFABRRRQAUUUUAFFFFABRRRQAUUUUAFFFFABRRRQAUUUUAFFFFABRRRQAUUUUAFFFFABRRRQAUUUUAFFFFABRRRQAUUUUAFFFFABRRRQAUUUUAFFFFABRRRQAUUUUAFFFFABRRRQAUUUUAFFFFABRRRQAUUUUAFFFFABRRRQAUUUUAFFFFABRRRQAUUUUAFFFFABRRRQAUUUUAFFFFABRRRQAUUUUAFFFFABRRRQAUUUUAFFFFABRRRQByvxz/5Iv4u/wCwLe/+k8lfyN2f/IPg/wCuS/yr+uT45/8AJF/F3/YFvf8A0nkr+Ruz/wCQfB/1yX+VfsfhX/DxPrD/ANuPAzr44fP9D+vjwP8A8idpP/XnD/6LWtasnwP/AMidpP8A15w/+i1rWr8dl8T9T3Y7IKKKKRQUUUUAFFFFABRRRQAUUUUAFFFFABRRRQAUUUUAFFFFABRRRQAUUUUAFFFFABRRRQAUUUUAFFFFABRRRQAUUUUAFFFFABRRRQAUUUUAFFFFABRRRQAUUUUAFFFFABRRRQAUUUUAFFFFABRRRQAUUUUAFFFFABRRRQAUUUUAFFFFABRRRQAUUUUAFFFFABRRRQAUUUUAFFFFABRRRQAUUUUAFFFFABRRRQAUUUUAFFFFABRRRQAUUUUAFFFFAHK/HP8A5Iv4u/7At7/6TyV/I3Z/8g+D/rkv8q/rk+Of/JF/F3/YFvf/AEnkr+Ruz/5B8H/XJf5V+x+Ff8PE+sP/AG48DOvjh8/0P6+PA/8AyJ2k/wDXnD/6LWtasnwP/wAidpP/AF5w/wDota1q/HZfE/U92OyCiiikUFFFFABRRRQAUUUUAFFFFABRRRQAUUUUAFFFFABRRRQAUUUUAFFFFABRRRQAUUUUAFFFFABRRRQAUUUUAFFFFABRRRQAUUUUAFFFFABRRRQAUUUUAFFFFABRRRQAUUUUAFFFFABRRRQAUUUUAFFFFABRRRQAUUUUAFFFFABRRRQAUUUUAFFFFABRRRQAUUUUAFFFFABRRRQAUUUUAFFFFABRRRQAUUUUAFFFFABRRRQAUUUUAFFFFABRRRQByvxz/wCSL+Lv+wLe/wDpPJX8jdn/AMg+D/rkv8q/rk+Of/JF/F3/AGBb3/0nkr+Ruz/5B8H/AFyX+VfsfhX/AA8T6w/9uPAzr44fP9D+vjwP/wAidpP/AF5w/wDota1qyfA//InaT/15w/8Aota1q/HZfE/U92OyCiiikUFFFFABRRRQAUUUUAFFFFABRRRQAUUUUAFFFFABRRRQAUUUUAFFFFABRRRQAUUUUAFFFFABRRRQAUUUUAFFFFABRRRQAUUUUAFFFFABRRRQAUUUUAFFFFABRRRQAUUUUAFFFFABRRRQAUUUUAFFFFABRRRQAUUUUAFFFFABRRRQAUUUUAFFFFABRRRQAUUUUAFFFFABRRRQAUUUUAFFFFABRRRQAUUUUAFFFFABRRRQAUUUUAFFFFABRRRQByvxz/5Iv4u/7At7/wCk8lfyN2f/ACD4P+uS/wAq/rk+Of8AyRfxd/2Bb3/0nkr+Ruz/AOQfB/1yX+VfsfhX/DxPrD/248DOvjh8/wBD+vjwP/yJ2k/9ecP/AKLWtasnwP8A8idpP/XnD/6LWtavx2XxP1PdjsgooopFBRRRQAUUUUAFFFFABRRRQAUUUUAFFFFABRRRQAUUUUAFFFFABRRRQAUUUUAFFFFABRRRQAUUUUAFFFFABRRRQAUUUUAFFFFABRRRQAUUUUAFFFFABRRRQAUUUUAFFFFABRRRQAUUUUAFFFFABRRRQAUUUUAFFFFABRRRQAUUUUAFFFFABRRRQAUUUUAFFFFABRRRQAUUUUAFFFFABRRRQAUUUUAFFFFABRRRQAUUUUAFFFFABRRRQAUUUUAcr8c/+SL+Lv8AsC3v/pPJX8jdn/yD4P8Arkv8q/rk+Of/ACRfxd/2Bb3/ANJ5K/kbs/8AkHwf9cl/lX7H4V/w8T6w/wDbjwM6+OHz/Q/r48D/APInaT/15w/+i1rWrJ8D/wDInaT/ANecP/ota1q/HZfE/U92OyCiiikUFFFFABRRRQAUUUUAFFFFABRRRQAUUUUAFFFFABRRRQAUUUUAFFFFABRRRQAUUUUAFFFFABRRRQAUUUUAFFFFABRRRQAUUUUAFFFFABRRRQAUUUUAFFFFABRRRQAUUUUAFFFFABRRRQAUUUUAFFFFABRRRQAUUUUAFFFFABRRRQAUUUUAFFFFABRRRQAUUUUAFFFFABRRRQAUUUUAFFFFABRRRQAUUUUAFFFFABRRRQAUUUUAFFFFABRRRQByvxz/AOSL+Lv+wLe/+k8lfyN2f/IPg/65L/Kv65Pjn/yRfxd/2Bb3/wBJ5K/kbs/+QfB/1yX+VfsfhX/DxPrD/wBuPAzr44fP9D+vjwP/AMidpP8A15w/+i1rWrJ8D/8AInaT/wBecP8A6LWtavx2XxP1PdjsgooopFBRRRQAUUUUAFFFFABRRRQAUUUUAFFFFABRRRQAUUUUAFFFFABRRRQAUUUUAFFFFABRRRQAUUUUAFFFFABRRRQAUUUUAFFFFABRRRQAUUUUAFFFFABRRRQAUUUUAFFFFABRRRQAUUUUAFFFFABRRRQAUUUUAFFFFABRRRQAUUUUAFFFFABRRRQAUUUUAFFFFABRRRQAUUUUAFFFFABRRRQAUUUUAFFFFABRRRQAUUUUAFFFFABRRRQAUUUUAcr8c/8Aki/i7/sC3v8A6TyV/I3Z/wDIPg/65L/Kv65Pjn/yRfxd/wBgW9/9J5K/kbs/+QfB/wBcl/lX7H4V/wAPE+sP/bjwM6+OHz/Q/r48D/8AInaT/wBecP8A6LWtasnwP/yJ2k/9ecP/AKLWtavx2XxP1PdjsgooopFBRRRQAUUUUAFFFFABRRRQAUUUUAFFFFABRRRQAUUUUAFFFFABRRRQAUUUUAFFFFABRRRQAUUUUAFFFFABRRRQAUUUUAFFFFABRRRQAUUUUAFFFFABRRRQAUUUUAFFFFABRRRQAUUUUAFFFFABRRRQAUUUUAFFFFABRRRQAUUUUAFFFFABRRRQAUUUUAFFFFABRRRQAUUUUAFFFFABRRRQAUUUUAFFFFABRRRQAUUUUAFFFFABRRRQAUUUUAcr8c/+SL+Lv+wLe/8ApPJX8jdn/wAg+D/rkv8AKv65Pjn/AMkX8Xf9gW9/9J5K/kbs/wDkHwf9cl/lX7H4V/w8T6w/9uPAzr44fP8AQ/r48D/8idpP/XnD/wCi1rWrJ8D/APInaT/15w/+i1rWr8dl8T9T3Y7IKKKKRQUUUUAFFFFABRRRQAUUUUAFFFFABRRRQAUUUUAFFFFABRRRQAUUUUAFFFFABRRRQAUUUUAFFFFABRRRQAUUUUAFFFFABRRRQAUUUUAFFFFABRRRQAUUUUAFFFFABRRRQAUUUUAFFFFABRRRQAUUUUAFFFFABRRRQAUUUUAFFFFABRRRQAUUUUAFFFFABRRRQAUUUUAFFFFABRRRQAUUUUAFFFFABRRRQAUUUUAFFFFABRRRQAUUUUAFFFBOBQByvxz/AOSL+Lv+wLe/+k8lfyN2f/IPg/65L/Kv64vjmxPwX8Wf9ga9HP8A1wkr+SGzsZxosExhmWHyEYOUYJ0GBnBHP6V+weF1SEKWI52ldwSv1dpHzueVIxnT5nbf57aLzP69PA//ACJ2k/8AXnD/AOi1rWrH8EFh4V0leRttIgQR32Af0rYr8hkrSfqfQR2CiiipKCiiigAooooAKKKKACiiigAooooAKKKKACiiigAooooAKKKKACiiigAooooAKKKKACiiigAooooAKKKKACiiigAooooAKKKKACiiigAooooAKKKKACiiigAooooAKKKKACiiigAooooAKKKKACiiigAooooAKKKKACiiigAooooAKKKKACiiigAooooAKKKKACiiigAooooAKKKKACiiigAooooAKKKKACiiigAooooAKKKKACimyHahrE8c/EPRfhl4XvNa8Q6xp2i6Rp6eZcXl7OkMMK4/iZiAOcADqSQOppSkkuZ7GlKnOpNU6abk3ZJK7beyS3bNuaTy0zXmP7SP7XvgH9k/wj/bHjjxJY6RHID9lts+beX7f3YYV+eQ+4G0Z5I618D/ALbH/Bf2OJbzQfgrYx3G7MTeJ9Tg2xj/AGrW3b73s82BzkRuK/Nbxn428UfHDx9JqeualrXirxLrMqxme5Z7q8u2PAjUAZ29giDA7KOlfH5pxdRpXp4T35d+n/B+Wnmf094d/RozTM1HHcSSeFob8it7WS873VNf4k5LrFbn2D+3D/wW88dftD2t94f8DwyeAvCN0rQySErJq2oxHgh3Hywqe6R/NgkF+StfBE0fks0PaMbTGDkgdACPoMdB068iv0T/AGK/+CEfjD4sra678VLi58C+H5cSrpMJB1e7X0fqlup98yAdkOCP0U1H/gmX8DtS+CK+AH+Hegr4fj+eNkiK30cpXHni6z5vm/7W/kcEY4rLKMLmeIk8Ri3ZPa+j8rLovu+Z+Y/Sq4R4DzbLsHk/CNXlxOEc/g96lLn5Ob2lRtylUXIuWUeZJc0XbRR/M39hv/gu542+A8dh4d+JEE3jvwvbgQR3qsq6xYIOBhjhblQDjbJtf/poeBX60fs6ftY+BP2rPBia74F8R2Wu2mB58KHZdWLH+CeIjfG31AB6jI5r8nf23f8Agg544+CpvNe+GM1z4+8Mx5lbT2AXWLNPTYMLcqB3j2yH+4eWr4o+HHxN8WfALx9HrXhnWNW8K+ItOfyzNbO1vPGQeY5FONwyMFHBB6EHpXt08VWoPkqq6P4lwHGWfcNVlgs6pudPo3q7f3Z7SXk79ro/p/RyWAzn+tSV+XP7D/8AwcE2OsCz0D42WKaXdNiNPE2mW5NrJ6tcwLkxnPVowy5PKoMkfpZ4K8e6T8RvDtjrGhalp+saPqCebbXtjcLcW9wnZkdSVYfQnB4r1aOIhUV4M/aMj4ky/N6XtMFO/dbSXqv11T6M2qKM5orY94KKKKACiiigAooooAKKKKACiiigAooooAKKKKACiiigAooooAKKKKACiiigAooooAKKKKACiiigAooooAKKKKACiiigAooooAKKKKACiiigAooooAKKKKACiiigAooooAKKKKACiiigAooooAKKKKACiiigAooooAKKKKACiiigAooooAKKKKACiiigAooooAKKKKACiiigAooooAKKKKACiiigAooooAKKKZPJ5cTMOoHegBZWKx8cVBPd+RFuZlVVGSx6AYzyf1rwX9sX/gpJ8M/2MNLlh8R6wNS8SNFvt/D+nbZr+XPQuMhYYz/fkIGOm7pX5Hfto/8ABWH4nftiS3Wmte/8If4NnJCaLpczIbpPW5n4ebH90BY++09a8HNOIsLg/cb5p/yr9X0/M/YvDzwR4i4rccRTh7DDP/l7NNJr+5HefytG+jkj9Ev23P8Agt14A/Z1N7oPgv7L8QvF0G6Nxbz7dLsJB/z1uFyJGU9UizyMF0r8nv2n/wBsn4hfte+KG1Xx54in1C3t5C9rp6HydN03jrFCDtVgP4zucjqx6Uz9mL9j74hftceKRpPgTw7PqEduwS4vpD9n0+wHrLORtXjJ2KGc9lPSv1h/Yi/4Ij/D/wDZ7kste8cGD4heL4cSp9phxpdg/X91AxPmMD0klyeMhUOMfI/8Kmdy/lp/dH/OT/C/Y/pz/jXnhLR1/f463lKs7r/wGlF38m1/O0fnd+xb/wAEpPih+2HJa6pHY/8ACI+D5iGfXdUhaP7SuettDkPPx/F8qZ/j7V+uH7Gv/BNn4Y/sW2Ucnh7SBqfiUx7LjxBqQWW/lJHIjOAsKHJ+WMLwcEt1r6Bis44YlVUVVUYAHGB2p6xKp6d819dlfD2FwS5kuaf8z/RdPz8z+Y/ETxu4i4rcsPOfsMM/+XUG7Nf35aOfppHtFAIl9KBGoH606ivePx0Y8XHy8N2PvXzd+2n/AMEvvhf+2nazXWs6adD8Vsm2LxBpSrFecdPOGNs69sOCcHAK9R9KHmmtGrjBGR6VM4RkrSVzjx2X4bG0XQxUFOL3TX9WfmtT+fD9tb/glT8Uf2K7m51G/sf+Em8II3y+INKiZoEUdPtEfLwt04IMfPDntwf7Kf7cXxM/Yz8TNf8AgfxBcWtpPIJLzSrpftGm3/HWSFiBuI/jQq+P4sV/SNfWcd1ZyRSRrLHIpRkcZVweCCD2PcelfBn7bn/BCvwD8fWvtf8Ah21t8PPFUhaRreCM/wBk375yd0SAmBied0Ixnkxsa8mtl8oPnov+vI/F888L8Vg6v17h6o01qo3tJf4ZaX9HbTqzoP2If+C3Hw5/aeFnoniqS3+HvjKfCLb304/s6+fofIuDgAk8BJNrEkBd/WvtSO4yyhmX5u478Zr+aT9pX9kj4gfsi+Ljovjzw7daPJMSLe6A82x1ADqYZl+SQY5KZ3Ln5lHSva/2I/8AgsJ8UP2QXs9IvLqTxt4JgAT+ydUnYy2aeltcHc8WB0VgyDH3R1FUcxcXy1l8ysh8Uq2GqfUuIKbjJac1rNf4o/ql8up++2c0V4H+x5/wUZ+Gf7a+iqfCetC31+OLzLvQNQ2w6lbY+8RHkiVB/fjLL0yQTiveIpt+38q9SMlJc0dj9oweOw+LpKvhpqcHs07okoooqjqCiiigAooooAKKKKACiiigAooooAKKKKACiiigAooooAKKKKACiiigAooooAKKKKACiiigAooooAKKKKACiiigAooooAKKKKACiiigAooooAKKKKACiiigAooooAKKKKACiiigAooooAKKKKACiiigAooooAKKKKACiiigAooooAKKKKACiiigAooooAKKKKACiiigAooooAKKKbM+yMmgB1NkfYtZfiTxhp/hHQ7rUtUvrTTdPsUMlzdXUyww26ju7MQF7cnA5r86/wBtb/gvpo3hM3vh/wCDdnB4l1BQY38RX0TLptufWGLhrgjsx2x9/mHB4cfmWHwcOevK3ZdX6I+w4O4DzzijE/VsnoOdvik9IR/xSei8lu+iZ92/Hn9pXwV+zP4MfxB448R6d4f01ciNp3/e3LD+CKNcvI/+yoJ79Aa/K79tb/gvJ4v+K811oHwot7rwVoLny31a4VDrF4D0KDO22Ujpje/+0h4r4j+K/wAZPF/7QXjuTXvGGuar4m1y8cRLNdSGRhk8RRIPlRSSAI4wB2wSc19dfsVf8EQPH3x+Fnrfj43Hw98JzASrBLGG1e+X0WFhtgB4G6X5sH/VnrXw2IzzH5lP2GAi4x8t/m9l8vvZ/XmReD/BnAWEjnPGVeFaqtUpfBddIU9ZVGu8k+/LG1z498IeDPE/xy8ex6bounaz4q8TaxMZfKgSS6u7x88yOzHJ56u7YHdxX6TfsV/8EBli+y+IPjVf7mIWRfDOl3BCgZyVurhSN3vHEccffbkH74/Zi/ZG+H/7JXhVdG8D+HbTSlkA+1Xjfvb6/YAfNNM3zvz2JAHQACvUhAqn7vvXr5XwlSo2qYt88u3Rf5/l5M/NfEP6TGaZmpYHhqLw1Dbn09rJeVrqmv8ADeS6SWxhfD74caF8L/Clnofh3SNO0PRbBNlvZ2MCwwxDthVAH1PUnkmt4IAf1o24pa+vjFJWjsfzDUqzqzdSq3KTd23q23u2+rfVhRRRTMwooooAKKKKABl3DBpphU9qdRQBzvxP+Fnh34w+DLzw/wCKNF03X9Fvl2zWd9AJon9Dg9GHUMMMDggg81+X37bX/BvpPZfa/EHwSvmuI+ZG8L6pcbXX/Ztrl+CP9iXH/XQ9K/WMjcKaIVB+6B9KxrYeFVe+j57PuF8uzinyYynd9JLSS9H+j0P5edc8N+J/gb8QmstQtdb8J+J9DnVvLkWSyvLKQdGH3WTH8JBAxyGwc198fsQf8F9/Evw0FnoHxftZvFujR4jj160RV1S2HQGVOEuAO7ZSTqcuev6bftU/sU/Df9sPwp/Zvjrw7a6jLAhWz1GP9zqGnk/88p1+ZRnkqcqe6mvyN/bb/wCCH/xE/ZtN5rngj7R8RPCMYMh+yw/8TayQd5YF/wBaB/fi5xyUWvJlh62HfPTd1/W6PxnGcK8QcL1ni8oqOpS623t/eh19V+B+ynwR/aG8H/tH+BofEfgfxBp3iLSZzt822k+aFv7kqEb4nHdXCt7V2kblm61/MZ8E/jz4z/Zt8dx+IPBPiDUvDusQ4SSW2cqk4U8xzRkFZFHQq4wD2zX6o/sP/wDBfvw38QEtNA+L9rb+EdYwsaa7aqx0q6PTMq/M1ux7nLR85yg6dmHzCEtKmj/A+14Z8UcDjrUMf+5qd38Dfq/h9Jfe2fpNRWfoPiKz8S6Za31he2uoWN4glgubaRZIbhCMh0ZSQykdwSDWhnNegfqKkmroKKKKBhRRRQAUUUUAFFFFABRRRQAUUUUAFFFFABRRRQAUUUUAFFFFABRRRQAUUUUAFFFFABRRRQAUUUUAFFFFABRRRQAUUUUAFFFFABRRRQAUUUUAFFFFABRRRQAUUUUAFFFFABRRRQAUUUUAFFFFABRRRQAUUUUAFFFFABRRRQAUUUUAFFFFABRRRQAUUUUAFIzbVpJG2rXiv7Wn7e/w3/Y20HzvGWuxrqVxGZLPRrMefqN9zj5Yhyq5/wCWj7U7bs8VlWr06MHUqtJLqz0MryvGZliY4PAUpVKktoxTbfyXbq9l1PZmnZTXyH+2x/wWP+G/7K/2zRNIlXx14zhzG2m6dMPstlJj7tzcjKIR3Rdz8cgDkfnX+2p/wWN+JX7Vsl1pGhyy+AfBspMf9n6fcN9tvFPGLi4UZII4KR7V7EsMmvn39n/9mbxx+0/4zj0DwJ4dvdcvI8ea0a7LayQ9WmlPyRLn+8cnspzXxGY8WSnL2GXRbb62bfyX+f3H9bcD/RpoYSh/a3HNaNOnFXdNSSSX/T2peyXdQf8A2/0Oq/ay/bw+JX7Z+u/aPGWtSf2RHJutNEsVaHTbPvkRgkyOP78hZj2Kj5a3P2OP+Ca3xP8A21buC70LS10jwrvxJ4h1NGjs1weRAPvXBHpGNobALrX6HfsTf8EI/BfwjNprvxSktvHfiJQJBpgQro1k45A2H5rgj1kwmRwnQ19+WGl2+l2UNvbwRW9vboI4oo12pGoGAqgcAAcADgCs8BwvXxEvrGYyevS92/V9Pl+B3cYfSKyjJML/AGLwHh48sdFU5eWnHzhDRyf96Vk3raadz5n/AGKv+CVPwy/Y1FtqVpY/8JR4wVcPr2qRBpoiRz9nj5S3U8/dy5B5c19O+Qp6qKVY1ToMfSnV9xhsLSw8PZ0YqK8j+Q884gzLOcXLHZrWlVqPrJ3+SWyS6JJJdENEag9P/rU6iiug8cKKKKACiiigAooooAKKKKACiiigAooooARlDjB5FMmiURcL06e1SUMNwoA+Tf23P+CRvwv/AGx1utW+x/8ACI+NZhuGt6VAFa5ft9ph4Sb/AHvlk/2wK/IP9sj/AIJufFD9ifUppPEukf2h4bD7YPEWmhptPkJ+75hxugc/3ZAMnoT1r+izYuTx161U1vQrPXNKuLO8tbe8tbqMwzQzxiSOWNuGVlbIYEcEEYPeuOvgadTVaM+A4n8O8tza9aK9lV/mit3/AHls/Nqz8z+db9jz/goj8T/2JtZUeD9Ya40OR99z4f1DM+nT8jJCcGKQ9d0W0nvu5B/Xr9iD/gsV8M/2vo7PSLy8j8E+NJsL/ZOpzKIbx+/2WfhZef4Dtk/2T1ryL9tv/ggX4T+Ksd3r/wAJri38E69JukfRptzaPdt/sdXtif8AYDR9BsXqPyl+PH7Onjb9mHxrJ4f8d+H9R8P6nHzGJ0zDdKOrwSglJU4+8hOO+DxXn81fCu0tY/h/wD8yp4ziXg6ap117TD9Osfk94vyenkz+m6OUs6/N9RUtfhP+xD/wWy+JX7Lr2WieKGl+IXg6EKi299N/xMrFOg8i4bllA6JLuHGAy54/XT9lT9u34b/tleGf7Q8E+IIbq6hQPeaTcgQ6lYf9dICc47B0LIezGvSw+Lp1dFo+x+ucN8cZZnKUaMuWp/JLR/L+b5a90j2SioopizD3qWuo+wCiiigAooooAKKKKACiiigAooooAKKKKACiiigAooooAKKKKACiiigAooooAKKKKACiiigAooooAKKKKACiiigAooooAKKKKACiiigAooooAKKKKACiiigAooooAKKKKACiiigAooooAKKKKACiiigAooooAKKKKACiiigAooooAKD0psmdnHWqep61DothPd3c8Nra20bTSzSsI44kUZLMxwoAHckUDim3ZFyZ/LiZumOea5P4tfG/wt8B/Bdx4g8YeINN8PaPa5D3N5KEDHqEVfvO57KgLHsDXxH+2t/wXk8JfCtLvQfhXb2/jjxAhMTatISuj2jeqsMNckc/c2p/tnpX5W/Hr9pDxr+054ybxB458RXmv3zHEKzsEt7NScbIYV/dxJkgYULnuSea+UzTivD4e8KHvy/8lXq+vy+9H9HeHf0cM7zzlxmc3wuHetmv3sl5Rfwp956rRqLR92ftq/8ABfPW/GIvNA+DVnLoemsDG/iK+gVr6cetvAcrCD2aTL/7KHkfn3HH4l+NPxBKr/bXirxT4guC2F82+vtQk6c8FpDyc9QBntxX1J+xZ/wRl+JP7Uos9a8RRy+AfBs2JBeX9sf7QvlPeC2bBAI6Sy4XByFcdf1q/ZQ/YV+G/wCxzoP2PwboEMN9Mmy81a6P2jUb4f8ATSYgEKSM7ECoP7teDRyvMs3mq2Lk4w6X/wDbY/q/xP2bNPETgPw0w0sr4aoqvidpcru7/wDT2rrez15I3s7q0L3Pz5/Yp/4IG6p4oWz8QfGe8k0axIDp4b02cNeSDrtuJ14iHTKR7mxkb1JxX6f/AAk+Dfhb4G+D7Pw74R0DS/Dui2g/d2ljAIkB/vN3ZjjlmJYnqa6sQqP4enSgRKp4HSvtstyjDYKNqMdererfz/RH8kcceJmf8V1/aZrW9xO8acbqnH0jfV/3pNy87AsSqc7ef5U6iivTPgQooooAKKKKACiiigAooooAKKKKACiiigAooooAKKKKACiiigAoZdw5oooAb5S+lcj8aPgV4R+P/gi48P8AjLw9pviHR7jkwXcW7y2/vow+aNx2dCGHYiuwoI3Ck4pqzM61GFWDp1UpJ7pq6fqj8fP23f8Ag3+1zwQbzXvgzeTeItJJaRvDt/Mq6hbjGcQTHCTjr8smx+PvOa/PiwvvFHwO+InmW8mueEfFOgT4yPNsr7T5R2I4ZT7HAIPoef6iDEpHSvEf2vf+Cffwx/bQ8P8Ak+MNBj/taGMpaa1ZYg1Kz9NsoB3KP7kgZOT8uea8yvlyfvUtH2/rY/IeJPCmhWk8Vk8vZz35X8Lfk94v716H5/8A7D//AAcE3/h0WegfGyyk1S0GI08S6ZAPtMXbNzAoCye7wgN/sMea/Uf4UfGTw38cPBtp4h8Ja5pniLRbwZiu7GYSIf8AZI6qw7q2GB4Ir8PP23P+CNXxM/ZJa81jR4ZPHngqEFzqWmwbbqyTr/pNuCWUerpvTjJ25xXgf7On7VHjz9lXxiuveBPEl9olxIVNxEjCS1v1HaaFjsk79fmHVWUgEY08ZVovkrK/5/8ABPByvj7OMjrLA8QU5Siur+JLuntNfO/mf0zAkmnV+fX7Dv8AwXl8E/G6Sz0H4nR23gHxPNtRb/eW0a9Y8cO3zW7H+7KSvo5JAr7703UY9Tto54Zo54ZlEkckbBlkUjIZT3B6gjg9jXrUq0KivB3P2rJ88wOaUfb4GopLr3Xk1uvn8i1RRRWh6wUUUUAFFFFABRRRQAUUUUAFFFFABRRRQAUUUUAFFFFABRRRQAUUUUAFFFFABRRRQAUUUUAFFFFABRRRQAUUUUAFFFFABRRRQAUUUUAFFFFABRRRQAUUUUAFFFFABRRRQAUUUUAFFFFABRRRQAUUUUAFFFNmk2Rsc4NADieKjlkKISOv6V5b+0z+2Z8P/wBkbwr/AGp458RWumGZS1rYxjzr6+I7RQr8zc8bvuj+JgOa/J/9tb/gtz8Qf2iWu9E8Di4+HnhGTKF4Jg2sXydzJMuPIz/ciycZBcjIPj5nnmFwStUd5fyrf59vn8rn6l4f+EPEPFs1PBU/Z0L61Z3UPPl6zflFOz3a3P0Q/bU/4Kx/DP8AY9W60qe8/wCEs8ZRj5dC0uVGkgbqDcy8rbjvhsvjkIa/I/8AbC/4KO/E79tLUGh8Q6mul+G1cNb+H9LZ4rJRngyH787jj5pMjPKqpwK8v+DvwQ8XftDeOI/D/g3QdT8SazcHe0Nqm7ZuOfMldiFRT1LyMAepNfqJ+xP/AMEEdA8Fm11/4xXVv4o1b5ZV0G0dhpls2P8AltJw9ww9Pkj4xhxzXxs8TmmdS5KS5af3L5v7Xyv6H9VYXIPD7wooRxWZT9vjbXV0pVG/+ncL2prtKTvuud6I/Pn9kf8AYD+JX7aOsonhHRPL0WFwlzrt/mHTbfB6eZgmZh/ciBOcZK84/Wr9iX/gj98Nv2T5LPWNSt18deM4fn/tXU4QYbR+eba3JKxkdnYvJj+IDivq7QPDWn+F9It9O02xtNP0+zjEVvbW0SwwwKOioqgBR7AVfCKD0r6bK+GcNhLTn78+72Xov13P558RfH7iHibmwmGf1XCvTkg/ekv789G7/wAqUY907XGrAoH3e+aVYlU8CnUV9IfhIUUUUAFFFFABRRRQAUUUUAFFFFABRRRQAUUUUAFFFFABRRRQAUUUUAFFFFABRRRQAUUUUAFIyBxyOtLRQBG8C7T8vX3r40/bi/4IvfDP9qw3mtaDDH4B8aT7pDf6bbj7JfSf9PFuMKSecyR7Xycktjafs8jIpvlL6VFSnGa5Zq55uaZRg8xo+wxtNTj59PNPdPzVj+bv9rX9g34mfsV6/wDZfG2huNLaXZaa1aBrjTL1u22XjYx/55yBH9j1rqv2Lv8AgqB8Uv2Kby3s9H1Jtd8Jq5Mvh7Vi8loozz5DD54GwSfkJXPJRq/oI8XeEtL8a+G7zSdY02y1XTL+Mw3NpdwrNDOh4KsjAqR7EYr82P23f+DfrSPFK3viD4L3kPh++yZG8OX8xNhN7QSnLQnPRH3J6FBXlVMDUpvnoP8Az/4J+K5x4b5llNb6/wAPVW7a8t7TXkukl5NfJn03+xP/AMFWvhj+2jbQ2Gn6h/wjPjBlG/w/qkircM3fyH4W4Ucn5MOAPmRa+morje6jPUkDHtX8wvxV+EXjD9njx1JofizRdW8La9p5EiwXKNFKuOVkiYcMvGVdCR6Gvsf9iL/guv4++ATWWg/ERLn4geF4cRJcyyBdZsF6fLIxxcAD+GUhj/z1HStKOY/Zrff/AJo9Lh3xWSl9Uz2DhNaOST3/AL0d0+9tPJH7c0V5h+zT+154B/a48GjW/AfiSz1mBAPtNtny7uwY/wAM0LYdG9yNpwdpI5r0qKQvt5/lzXpxkpK8T9kw+IpV6arUJKUXs000/RolooopmwUUUUAFFFFABRRRQAUUUUAFFFFABRRRQAUUUUAFFFFABRRRQAUUUUAFFFFABRRRQAUUUUAFFFFABRRRQAUUUUAFFFFABRRRQAUUUUAFFFFABRRRQAUUUUAFFFFABRRRQAUUU2VtsZPT3oAdTZX2Iar3F8LaJneRURRuZm+6oxkknsK+G/22f+C43gP4BNeaH4CFr8QvFUIaN3im26TYvg43zj/XEEcrFkdi6YrlxmOoYWHtK8kl+L9Fuz6ThfhHOOIsWsFk9CVWfW2kYrvKTtGK82123Ps7x/8AE3QvhT4VvNc8TazpuhaPYpvnu764SGGMe7E9c4AHUngZr8zv21/+C/slyt5oPwUsf3bZibxPqUGS3va25H5STDBzwh618DftLftc/ED9rPxW2r+PPEV1qnkMWtrRf3On6cO4hhBKoQP4jlyOrmvXP2Lf+CTXxO/a+e11ea0/4QzwbcEOdb1OBhJdp/07QcPLx0Y7U/2j0PwuM4jxmOqfV8ui0u/2v8or+ro/r/hnwJ4X4QwizvjrEQqSjryu6pJ9kviqy7K1nr7j3PnrxL4o8UfGzx+99q19rXinxLrkyoZZvMvL28kPARRyxPoijA7AAYr7q/Yt/wCCDniv4mfY9e+LlxceDdDbEqaLasratdDt5jcpbj1GWkGCPkPI/Qn9jf8A4J0fDH9i3Toz4Z0dbzxBJFsutf1DbNqFx1yFbAESf7EYVfXcea9+8pc9K7st4RjH97jnzS7dPm93+HzPkOP/AKTWJrQeW8IU/YUkuX2jS57LS0IfDBW2bvK1rKDRw3wK/Z28F/s2+DIfDvgnw/p/h/SYzlo7ePElw+OXlkJLSue7MSa7lYVQ5C8il2jNLX2kIRhHlgrJdEfynisVXxNaWIxM3Ocndyk2229227tvzYY5oooqjnCiiigAooooAKKKKACiiigAooooAKKKKACiiigAooooAKKKKACiiigAooooAKKKKACiiigAooooAKKKKACiiigAI3Cm+Wv+TTqKAPPf2hv2X/Av7UXgeTw/448N2Gvae2WiMq4ntGP8cMoIeJ/dSPxHFflB+25/wQT8ZfCFr3XvhTNc+OfDi5kfSpNo1izT0GMLcjH90K5/uN1r9oSNwqOSBWU8ZPYnmuevhYVfi37ny3EXB+WZzH/aoWn0mtJL59V5NM/l98D/ABA8UfAf4gR6v4f1TWPCviTSnMXn27tbXULA/NG4ODjOQyOCOxU1+m/7EP8AwcFw3TWugfG6yW1mO2NfE+mWx8pu2bq2Xlf9+EEE4/dqMkfYf7Z3/BM34Y/tq2E1xr+k/wBk+KPL2QeIdNVYb+PA4Eh+7Mg4+WQHjoV6j8gv22P+CTHxR/YxlutTmsz4s8Gwklde0qFmSBfW5h5eA8jLfNHk/ery3Rr4Z80NV/W6Px7EZLxHwjUeIwEnUodbXat/ej0/xJ/NH71+AviHo/xO8N2WteH9W07WtH1BPMt7uynSeGZfUMpxx3HY8cVvZzX81f7LH7anxH/Y38Uf2l4D8QXWnwTMrXemzDztPv8A082Anax2khXXaw7NX63/ALEP/Bcb4e/tKfYtD8ZGH4e+MJysSrdTA6XqEh4/cXDY2MT/AASgc4CtIa7sPj4VNHoz9C4Y8SsuzO1HE/uar6N+635S/R2fa+59y0VDFdCbaysrKwyCCCD/AIj3FTZzXcfpAUUUUAFFFFABRRRQAUUUUAFFFFABRRRQAUUUUAFFFFABRRRQAUUUUAFFFFABRRRQAUUUUAFFFFABRRRQAUUUUAFFFFABRRRQAUUUUAFFFFABRRRQAUUUUAFFNlk2L+Irz/8AaB/ah8D/ALLngxte8deJdP0GxwfJWZsz3bD+CKIAvI3soPqcDJEVKkKcXObsl1eh1YPBYjF144bCwc6knZRim5N9kldt+h388nlxscgY9TXzt+2P/wAFMvhr+xjazWuuap/bHiZk32+gaZtmvGz0MvO2FfdyCR0Vulfnr+2r/wAF2vGvxka80H4Xw3XgPw7ITE2pSBf7ZuwemCCVtcjnC7nx/GvSviXwF8PfFHx08exaT4d0vWPFXiLVnMoit42ubi5Yn5pHYk8ZyWkkYD1Pavi8y4uSl7LALmk9Lvb5Ld/1uf1dwD9GWtOmsz4xq+xpJXdOLXNZa3qT+GC7pXdt3Fo90/bP/wCCqXxP/bKkuNOu73/hFvB8zELoGlylUlGelzKSGmPAOD8mR9yvO/2Xf2MviJ+2B4lOm+BfD817b27LHdajMfI07T8/89ZSMA99ihnOBhK+/v2K/wDggPb6a1rr3xqvkvJuHXwzpk5EC98XVwCDJ7pFhePvMMg/pP4G8BaN8OfDdlo2g6Xp+j6Tp8flW9nZQLDDAvoqqAB7+p5rjwfDeLxs/rGYyav0+0/0j/Wh9RxR498N8KYR5JwJh4TcdOZJqkntfpKrLvK6T35pao+P/wBib/gih8O/2bpLHXPGAh+IPjKHEglu4Num2MnX9zbsTuYHo8pY8AgIcCvtdLWNUC7cY7CnLCqHgU6vucHgqGFh7OhFRX9bvqfyDxNxZm/EGLeOzivKrPpfZLtGKtGK8opLqNEahs45p1FFdR86FFFFABRRRQAUUUUAFFFFABRRRQAUUUUAFFFFABRRRQAUUUUAFFFFABRRRQAUUUUAFFFFABRRRQAUUUUAFFFFABRRRQAUUUUAFFFFABR1oooAQoD2qK7tUntXjZFZXBUqw3BgeMEdx/SpqCNwoA+D/wBtz/ghx8Pf2hzea94Da2+HfiyYtIY7aHOk3rk8+ZAv+qYn+OHHXLIxr8lf2nf2OviJ+yD4qOlePPDtzpizErb30f7+w1EYyTDMBsY45Kkhx3UV/SwYlOeOtYPxH+Gfh/4q+D77Q/Emj6brmj36bbi0vrdZoZO4JDDqDyGHIIBBBFcOIwEKmsdH+B+a8TeGeXZlethv3NXul7r9Y/qrd2mfg/8AsS/8Fc/il+xxJaaS963jLwbbkI2jatMzfZU/6d5/mkh4/hIeP0QHmv18/Y2/4KVfDH9tfTI4/DWsf2f4kWPfc+H9T22+oQ45ZlXJWZBz88ZIA67TwPiv9t7/AIN9AWu9f+CF8q7S0jeFtUnwvrttblvuj0SbPr5gHFfmj4p8H+KfgR49k0vWNP1zwn4l0WVZPInSSzu7Vhyrr0YeqsvYkgkVwxrV8M+Wauv62Z+fYbPeIuEqqw2Yx9pR2V3df9uz6ejXyR/UFHNvYDO73HSpK/GX9iL/AIL5eLPhS1noXxat5vGmhKRGutQBV1e1X+9ICQtzgdyFkPPzMeD+rnwF/aV8F/tN+BofEXgfxBp/iHTZMBzbviS2Y/wSxkb43/2XAP1HNepRxVOr8L17dT9j4d4uy3OYXwk/f6xekl8uq81dHfUVGkhZu1SV0H1AUUUUAFFFFABRRRQAUUUUAFFFFABRRRQAUUUUAFFFFABRRRQAUUUUAFFFFABRRRQAUUUUAFFFFABRRRQAUUUUAFFFFABRRRQAUU2RtqE1C9ywX8M8f/qNAE0pKxnHFZfinxjpvgfw7d6trOo2Wk6bp8Xn3V3dzJDBAg6szsQFHueK+R/22v8Ags38Of2YRfaF4fkj8feMocxNZafMPsVjJ6XFwu4bh18uMM+Rg7Oo/Jf9qv8Abh+I/wC2R4l+2eNddeTT4pjLaaPZ/uNNscHqkW47nGf9Y5ds9x0r5rNOJ8NhLwp+/Pstl6v9F+B+9+Hf0fc/4k5cXjV9Vwz15pr35L+5DR2f80mlZ3XNsfoL+2r/AMF99M8Pm80D4L2cWuXigxv4k1CFhZRH+9bwnDTY7O+1M4OHFfmN8TPiv4u+PnjyTXPFOtat4o1/UHEQnuZWmkbJwI40XhRnACRKF7YzXsH7Gn/BMf4n/tn3NvfaVpy6D4Tdwz+IdViZLVwD/wAu8f37jv8AcIUHgupNfrl+xb/wS2+F/wCxpDDfabp//CSeLgpEviDVUWS6B7iFfuQL14QbsHBZq+Zp4PM85mqlZ8tPppZfJdfX8T9/xnFHh94VUJYLKqft8Za0rNSqN9qlS1oLvGK3s/Z9T87/ANiv/ght45+Oy2mvfEeW4+H3heQCRbN4h/bN8menltlYAexlG7/pn3r9Wv2bf2UPAX7KvhRdF8D+HbPR4GA+03AHmXd+4Aw80zEySN/vHA7ADivTEhVFHy9KFiVTwK+0yzJMLgl+7V5d3q/+B8j+UeP/ABa4h4tqOOYVeWhfSlC6gu11vJ+cm7dLLQPKX0pQgBpaK9c/MwooooAKKKKACiiigAooooAKKKKACiiigAooooAKKKKACiiigAooooAKKKKACiiigAooooAKKKKACiiigAooooAKKKKACiiigAooooAKKKKACiiigAooooAKKKKACgjIoooAb5a46V5d+1F+xv8ADv8Aa98HHSfHXhuz1UQqwtLxf3N7YMe8My/MvPJHKnupHFep0EbhUyipK0jDEYaliKbo14qUXumrp/I/D/8Abd/4IY/ED9nj7Xr3gFrr4h+E4syNFDFjV7FR/wA9IV4nA/vRYbGSUABI+Qvg/wDGzxh+zt46j8Q+D9f1Tw3rVq2xri3kK+Zg8xyqRtcA8FJAQO/Nf09Sxgxnjnt7Gvln9tv/AIJOfC/9sxbjVLiyPhXxlKpK69pUarNO2OPtMZIWcdsnD44DivMrZdrzUX8v8mfjnEPhVyz+uZFPkmtVFu2v92W6fk7rzWx88fsQf8HAWg+NDZ6B8ZbOHwzqhxGniGyjLabcnpmaLl7dj3Zd8fOcoOn6PeG/FOn+LtIs9S0vULPUtOvoxNbXNrKssNwh6MjqSGHuDiv57P2y/wDgmb8UP2J9QnuNd0v+2PC6uBD4h0pWlsznoJRjdbscgbX4J6M3Wsb9kT/goD8Tv2KNeWXwfrkh0eWQvc6FfAz6Zd88nysgxsf78ZVj3JHFZ0sdUpvkrL/P/gnn5P4k5jldb6hxDSbt9q1pLza2kvNa9bs/o+zmivjv9h//AILNfDT9rY2ei6pNH4F8bT4RdM1Kdfs98/Qi1nIAk54CMEckgAN1r6+jlZ5ByPpXrU6kakeaDuj9qy3NsJmFFYjB1FOL7dPJrdPyepNRRRVnoBRRRQAUUUUAFFFFABRRRQAUUUUAFFFFABRRRQAUUUUAFFFFABRRRQAUUUUAFFFFABRRRQAUUUUAFFFNmk8uNjwMevagB1Nlk8tGOQMDqe1cf8ZPjz4T/Z98F3HiLxn4h03w7o9v/wAt7uUJ5jY+4i/ekc9lQFj6Gvy3/bX/AOC+XiLx0L7Qfg/azeGdJYNFJ4gv4l/tGcY6wRHK24I5BfL45whry8xzjC4KN60teiWrfy6fOx+hcC+F/EHFtblyqj+7TtKpLSnH/t6zu/7sU5eR+hH7XH/BQL4a/saaC0ni/XFl1iaMyWuiWIE2o3Y9fLH3E/25CqYB5J4r8kf20v8Agr98TP2tDdaVpk0ngTwXOSv9maZcN9pvI/8Ap4uAAzgjqiBE7HcMmvmrTtJ8SfGjx+tvawa14q8Ta9OWChZLy+1CQ8lm6s7dSWJxgHpX6JfsWf8ABAy81wWfiD40XjafbsBKnhnTbgG4bnpc3A4T/ciye3mA8V8TUzLMs3m6WFXLDrbb5y/Rfcz+tMt4C4C8McNHM+Iaqr4q148yTldf8+qWttftyvZ680Uz4Q/Z2/Za8dftUeLxofgPw3ea1PEQtxKiCKz04HvNKfki9drEsewJwD+rH7En/BC3wP8ABU2eu/Eqa38f+JkAkFkUK6NZP7Rnmcj+9J8vog4r7R+Fvwi8N/BjwjZ+HfCuh6boOiWK4hs7KAQxKf72B95jjliSxPJJrp1jVccdOlfQ5Xwrh8Nadf35/gvRf5n4n4ifSMz3P+bCZTfC4d6aP95Jf3pr4U+0LbtOUkR2unw2UCRwwxwxxqEVEXaqgDAAA4wBwB2qUKAelLRX1J/Ou+rCiiigAooooAKKKKACiiigAooooAKKKKACiiigAooooAKKKKACiiigAooooAKKKKACiiigAooooAKKKKACiiigAooooAKKKKACiiigAooooAKKKKACiiigAooooAKKKKACiiigAooooAKKKKAAjcKaUBFOooAqarpNrqemT2t1bw3FrcIYpYpUDxyI3DKytwQQSCDwa/Pr9tj/AIIJ+Dvi8t54g+Fc1v4D8RSFpn0tlb+xbxz/AHVGWtmP95Ayf7Hev0QI3Cm+Wvp1rOrRhUVpo8jOMiwOaUvY42mpLo+q9Huj+ZP9oX9mPx3+y14zfw/488N3ug3nPledGJLe8UdXt5FJSVf90kjOCATivo39iH/gtH8TP2VmstG16aX4geDIcRiz1Ccm+skHGLe4PzYAxhJAyjGBtzkftr8Xvgl4T+O3gm68O+MPD+l+INFu/v2t5CJFB7Mp6o47OpDDqCOtflj+27/wb+ar4YN7r/wXupNcsBmR/Dmoyr9tgGM4t5mwsoA6JKVY4+8xryamDq0Xz0X/AJ/8E/FMy4CznIazx2QVHKK3S+JLs47TXy/7d6n6Ifslft8fDb9tHw4t54L8QQy6jDH5l3o12BBqVl/vxE5K/wDTRCyHsc8V7KkxMgWv5einij4H/EPcf7c8I+KtBuMHcZLLUNPlH/fLq/4jP0PP6JfsQf8ABwHq3hBrHw/8aLGTWrFcRR+I9OgC3sOf+fiAYE3qXjCt3KOea3oZkn7tXR9/62PouG/FbD12sNnEfZT25l8Lfmt4v716H68UVyXwh+N3hX49eDLfxF4N8QaX4k0W6/1d1YyiRQe6uPvI47qwDDuBXVq+4/55r007q6P1ylVhUgqlNpp6prVP0Y6iiig0CiiigAooooAKKKKACiiigAooooAKKKKACiiigAooooAKKKKACmyEqhxRIcIa4j48fHrw5+zl8KdY8YeLr9bHRdFh86UgZklbokUa9WkdsKoHUnsOkznGEXObslub4XC1sTWjhsPFynNpRSV223ZJLq29jpbnxPZ2Oq2ljPeW0V7fBzbwNKolnCAF9i5y20EEkDgEZ61ehnaR/av51f2tf21PGH7Vv7RMnxAvLy80e4sZNugW9rctG2hQKxMaxyKQfMPDNICCzZP3QFH6Of8ABJr/AIK6f8L1v7H4a/E26hj8ZY8rRtaYLHHr20cwy8ALdYGcgASgfwuMN8zgeKsNiMS8O1y6+6319e1+n3bn77xl9HTPciyKGcwmqzjHmrQitafVuLu+eMV8TWqs5JON2v0UpsrbEzUImZvutk46Y4z/ADr5Y/bU/wCCuXwz/ZAF1pC3g8ZeM4sp/YmlzK32VsdLqfBSD/dO5yB9zuPoMViqWHh7SvJRXmfiuQcOZnnmLWAymhKrUfSK2XdvaKXVtpLufT+ra9b6Dp9xeX1xDZ2drGZZpp3WOOFR1ZmbCqAPU1+fv7a//Bejwv8ADYXmg/CS3tvGeuITG2tXAI0izb1TkNcEf7OEz/Eeh/PP9r//AIKH/E39tHVGXxTqxsfD6vut9A03dDp8XORvHLTOP70hb1AQcVH+yD/wT1+Jn7aWqxt4V0f7L4fjfy59f1AGHTYcHlVbkzMP7kW73K8kfD47ijEYqf1fLYvXra7founr+R/X3CP0eMk4fwv9t8eYiLUdXDm5acfKUtHN9oxsm9PfTscD8cf2gPGn7SPjVvEPjjxBqHiDVZCVja6cLFbqT9yGMYSNCccIAD0JLc19NfsUf8EWviN+0wtnrfixbj4e+D5sSJNe2+NUvk6/ubZvuKeMPLjAOQr1+iP7En/BIn4Z/sii01a4tV8aeM4xk6xqcSlbVv8Ap2g5SLB6Ocyf7XavrMRL6VtlvCTlL22YSu+1/wA3/l955PHX0lqdCl/ZPBFFU6cVyqq4pJL/AKd09kuzmv8AtxPU8h/ZU/Yj+HH7HHh/+z/BOgQ2lxcLtu9UuP32o6h3zLMRuIyM7V2oOyivXvIXPT9aFjVTwMc54p1fbUqMKUFCmkkuiP5LzLM8XmGJljMdVlUqS1cpNtv1b1/rTQaI1B6U6iitDhCiiigAooooAKKKKACiiigAooooAKKKKACiiigAooooAKKKKACiiigAooooAKKKKACiiigAooooAKKKKACiiigAooooAKKKKACiiigAooooAKKKKACiiigAooooAKKKKACiiigAooooAKKKKACiiigAooooAKKKKAAjcOaaYlbqKdRQB4r+1v8AsD/DL9svw21r4z8PxSajEmy01mzb7PqVl/uTAElevyOGTn7tfkP+21/wRc+JX7KzXmseHoZPiB4LhBdr3TrYi+sVAz/pFsCTgDkvHuXglgnSv3hZQ64bkUx4VC/d9O9cuIwlOrq9H3PjeJOBsszlOdWPJU/njo/n0kvXXs0fzL/s/ftM+Ov2XvGq+IPAviLUNDv/AJRMsTGS3vEH8M0TApIuezAkHkEEAj9XP2H/APgvd4N+L/2PQfipDa+BfEUmIl1SIltHvHP95jlrZj6PuT/poOlelftv/wDBGv4Zftbm71jS7ePwJ41uN0jappluv2e9ft9ptwQrk85dSr853HofyI/a+/4J+fE79irXGi8YaG8mjSOEtdesd1xpt36DzMAxk/3JNrE9AcZPmuOIwrutvw/4B+SzwvEnB0+ei/aYfru4fNbwfmrerP6MtL1e31izhubW4iurW4QSRTRMHjlUjIIYcEEEEEdat5zX87P7Gn/BTL4o/sS6jBb6Bqzat4Xjcmfw7qjtJYkZ5aP+K3Y56x4H95Wr9f8A9ib/AIK1/C/9sxLbS7e+/wCEV8ZSKN+garIqyyt/07ycJOvoAQ/qgr0MPjadXTZ9j9O4Y8Qstze1KT9nV/lk9/8AC9n6aPyPqeo7h9kTfNt9/So/teVLKwIBOT2GOv5V+dH/AAVx/wCCwk3wJv8AUPhj8LbyF/GSr5Os60oEiaGSObeIchrnBGSeIgcffPydFatGlHmmfTZ5nmEynCyxeMlZLZdW+iS6v8up+hth4ls9R1i6sYb60mvLHYbm3SVWmtt6kpvXqu4AkZAyAfStKv5wP2Ov24/GH7Iv7RkXj6xvLzWG1B9mv215cs51y3Zsus0jZ/eg5ZJDna3qpYH+gv4C/Hbw5+0h8LdH8Y+E9QXUND1mATQuV2yRno0ci/wyI2VZT0I+hOOGxca3k+x4PB/G2Gz2E1GPJUi/hbv7vRp6X7Ps7d0dpRRnNFdR9sFFFFABRRRQAUUUUAFFFFABRRRQAU2QlU4606o7htsRoAo+IPEll4Y0S61HULq3s9PsYXuLi4nkCRwRoCzO7HAVQASST0FfhR/wVH/4KI3n7bvxXFjo8lxa/Dvw5Mw0e2OYzfy/da9lH95vmCKfuJ7s1e0/8Fpf+Clf/C19cvPhD4F1Df4X0yYx+ItQt3+TVrhG/wCPVCODBGw+Y9HdcDIU7vzv757nqe5//V09hX5vxRnvtpPB0H7i3fd9vRfi/Q/vL6PHg9/ZdGPE+cw/2ia/dQa1pwa+JrpOS2X2YvvJpA+Xp+Xr06/l/P1NSWl7Npt3Dc288tvc2rrLDNHIUeF0bcjKw5Uq3IIxg85HWo6VThuK+Luf1dZNWZ9VfHP/AILH/Gj41fC7S/Cv9sQ+GrW3sktNUvtLLQ32tOq4aSSXrDu7pFt3Zb5tuFrwL4KfATxl+0d43j8PeC/D+peItWkGZI7ZDshVj9+WRsLGp6lnOCfU4pvwGsfC2o/Grwna+NmvY/CN1qkEGrSWUwhnigdwpdXP3duQSRztBwQcV/RZ8DvgP4N/Z68GW/h/wV4d0zw7o8fPk2ce3zm7vI5y0rn++5JOetfU5VltbN6jqYirpGy7v5LZep/OfiNx5lPhhhKeByPLoqpiOaUbLlp3T1cmvek1dWjpZNJSirI+Hf2J/wDggv4Y+HZs9e+LlzbeMNawJF0W1Zl0m1Yf89GwHuWHodqDGCrDmv0N0Xw7Y+HNKt7HT7O1sbO1jEUNvbxCKGFBwFVFwFUegGKtiFVOcdKdX6Lgcuw+EhyUI28+r9WfwvxdxxnfE2K+t5zXdR9I7Qj5RitF5u131bY0RqDnHNOooruPkwooooAKKKKACiiigAooooAKKKKACiiigAooooAKKKKACiiigAooooAKKKKACiiigAooooAKKKKACiiigAooooAKKKKACiiigAooooAKKKKACiiigAooooAKKKKACiiigAooooAKKKKACiiigAooooAKKKKACiiigAooooAKKKKACiiigAo60UUAN8tf8ms/xR4W03xX4evNN1LT7PUtPvY2huLW5hWaG4RuqujAhge4IP0rSoIyKCZRTVnsfmf+25/wQB0HxsbzxB8G7yHwvqh/eHw9eSltNmPU+RJy1ufRTvT0CCvyz+MXwT8Yfs5+OJNB8YaDqfhnW7TEixXKFd4B4kikGVkTjh0Zh79cf09CNVHSuF/aA/Z18D/tI+BJ9B8d+HtN17SuZF+0riS0bvJFKCHiYD+JGBx7V5+Iy+E9YaP8D8t4m8LcDjr18vtRqdvsP5Lb1Wnkfib8Fv8Agtd8avg98IdY8I3GrW/iVbiye00rVtUJk1DQpCMCRZhnzgiklVl3EHB3YG0/I95ezahcyXE8ss9xcO0sskrl5JGZizFmPLMScnPck9Sa6b456d4X0n4xeKLXwTLfXHhO01S4t9ImvJVlnltkcqjs6gA7gMjjpjOTzXKFi1eLKcnpJ3sfz3mmaY3EcuHxdV1FTuld3W/R9fJ9tNhA20g8Db0OOlfXH/BKL/go/efsOfFj+ytbmmuPhv4mnUarbjMjabNwq3sS8nIXAcDlkXoSqY+RwcGnJy2DwCeeM4/z6UU6koSUo7mOU5riMuxUMXhXacX9/dPyezR/U14f1238SaVaahY3Vve6ffQrcW1xA4eKeNgGR1YcMrKcgg4xjrWhX49/8ERP+CnP/Csdbsfg74+1Lb4f1KbyvDWozsdum3DNj7G7H/llIxyhPCOcHhxt/X6CVpJPvDHp/kf5xX0mHrxqw5kf15wxxHh85wUcVR0e0o9Yy6r06p9V9xNRRRWx9EFFFFABRRRQAUUUUAFFFNmLLE2372OKACaTy42PPHoK/Pn/AILM/wDBTRvgR4auPhb4H1Af8JtrFv8A8Ti/t32nQ7VgPkUjkXEoIxjlEJbhihr2X/gpz/wUJsP2HvhFiwktbzx94iWSHQrBxvEWPla7mUc+VESOODI5VB1JH4QeKPFGo+N/EmoazrF7c6lq2qXD3V3eXD75bmVyWZ2P94nn04wMACvjeKM89hH6pQfvPd9l29X+CP6o+j14Pf2viI8S5zD/AGam/wB3FrSpNP4musINekpabKSefGm0L7KACR830+gp1BOTlvzJo7+mexGK/NT++AoprzxxttaSNW/ulhn9cV1ngf4FeOPibJt8O+DfFmvEnANjo9xMv/fSqV/UVUYSk7RVzHEYijQh7SvNRj3bSX3s5UqHzu6EYPuK/ob/AOCbHxcm+OX7EXw28RXUnnX8mjpZXjk5Z57ZmtnZvctHu/4FX46eBP8AgkX+0R4/QND8N9Q0uNur6veW1jx/uvJv/wDHc+1frp/wS6/Zs8Ufsm/sl6R4N8Xtp/8AbNtfXt0yWVwZ4YkmmaRV3lVyQDzxjmvtuEcNiqWJk5wai47tNK91b9T+RfpO59w/mWRYeGDxdKriKdVWjCcZSUXGXNdRbsrqF79Uj6Mooor9EP4fCiiigAooooAKKKKACiiigAooooAKKKKACiiigAooooAKKKKACiiigAooooAKKKKACiiigAooooAKKKKACiiigAooooAKKKKACiiigAooooAKKKKACiiigAooooAKKKKACiiigAooooAKKKKACiiigAooooAKKKKACiiigAooooAKKKKACiiigAooooAKKKKAAmvAv+Cnnxmm+BP7CHxK8QWsxhvv7JbTrRwcMs1062ysPdfN3f8AAa97lXdGR6182/8ABVL9mHxX+11+yRqPgvwe2n/21c6haXSre3HkQyJFJvYbtrYPAIyMZHbrWVfm9nLl3seTn3t/7Or/AFZNz5JcqW92mlY/npZFj+Vf4eM/QAYFNr6Z8f8A/BH79or4elmn+GmpapEvR9JvLa/yP9yOQv8A+Og14p48+AXjn4XSsniTwX4s8PsnX+0dIuLUfm6AflmvmpU5R0kmvkfxzi8nx+H1xNGUPWLX5o5GjrRGyyj5WVuccENj8un407Zj/wDV1/WouebytbgjbTnpgeuBxk/1P5mv2e/4Iu/8FOm/aA8KW/wv8c32fHWg2xOl3s5JbXrOMDIY/wAVxCuA3d1w3LB6/GDofStHwd4t1TwF4o0/WtFvrnS9V0m4S7tLq3fy5LaWM5V1PYj+XGCOK3w9eVKfMvn5n0/CfE9fJMasRT1i9JR7r/Nbp/o2f1KxOzOMsOew/wA/Spa+Xf8Agl9/wUN0v9u34MLJdNa2Pjzw/HHFr2nR/KHJyBdRL18mQg8fwNlT0Ut9QA7j7V9JTqRnHmjsf1zluYUMdhoYvDS5oSV0/wBH2a2a6MdRRRVHcFFFFABRRRQAVy/xn8e3Xww+F+ta9Y6Dq3ii+023MttpOmR+ZdX8uQEjQHgZYjLHhVyx4FdRSMoYcjNTJNxaTt5m2HqQhVjOpHmimm1dq6vqrrVX2utex+J3xS/4JtftWfts/F7VvG3izwvZaZfa1L01PWYLeGyhGfLgjiRpXWNFOACMkkk8sxPZ+B/+DdD4gasY28SfEHwlo8bYLpYWlxfuv4v5S57fSv17W2jVt235vU8mneWvpXzceE8FzOdXmm3q23u/kkfvWI+klxaqEcLl0aOGpwSjFU6d+VJWSXO5rReR+dXgH/g3S+HelureJPHfjbXGXtZR22nxt/47I3/jwr2nwD/wRc/Z38EBfM8Ctrk3Uy6vqlzdE/VfMCf+O4r6t2gmk8td27HNehRyPAU/hpR+av8AmfC5n4u8Z4/TEZlVt2jL2a+6HKjgfAn7Kfwz+GCRjw78P/BujNH917TR7eOQf8CC7v1rvEtUjUKFwqjAA4wKkoxXp06cIK0El6HweKx2JxU/aYmpKcu8m2/vdxoiUfw0LEqnp06e1OoqzlCiiigAooooAKKKKACiiigAooooAKKKKACiiigAooooAKKKKACiiigAooooAKKKKACiiigAooooAKKKKACiiigAooooAKKKKACiiigAooooAKKKKACiiigAooooAKKKKACiiigAooooAKKKKACiiigAooooAKKKKACiiigAooooAKKKKACiiigAooooAKKKKACiiigAI3CmtGr9RmnUUAN8tTSPbrIpDLlSMEHp+VPooA878f8A7JXwv+Kqyf8ACSfD3wVrbydZLzRbeST/AL7K7h+Brw7x/wD8ETv2cfHAZl8CtoUz/wDLTSNUubXH0TeUH/fNfWpGaa0auPm5rOVKEviS+48vFZHl2J/3ihCXrFP8bH5wePf+Dbv4b6sWbw1488a6KzHhb2K31CNf/HYmx/wKvE/Hv/Btz8QtKMjeGfiF4Q1pV5RdQtLiwc+2U81c/iK/YzYuOlIYlY/d6dPaueWBovofMYvw24fr6+w5X3jKS/C9vwPxF+En/BNj9rL9hr4z6X468I+E7XWLzSZCJF0zV7eaHUISR5lvLGzxuUcccDKkKwIZQR+yXwb8fXXxO+HGi67faFq3hi91K38240nU4vLu7CQZVo3HQ4IOGHDDBHWuoMSsP/r0JAkeNqgbentWmHw6paRbt2PT4c4VoZLzwwlSTpy15ZNNJ91ZJrTfe+nYdRRRXQfUBRRRQAUUUUAFFFFABRRRQAUUUUAFFFFABRRRQAUUUUAFFFFABRRRQAUUUUAFFFFABRRRQAUUUUAFFFFABRRRQAUUUUAFFFFABRRRQAUUUUAFFFFABRRRQAUUUUAFFFFABRRRQAUUUUAFFFFABRRRQAUUUUAFFFFABRRRQAUUUUAFFFFABRRRQAUUUUAFFFFABRRRQAUUUUAFFFFABRRRQAUUUUAFFFFABRRRQAUUUUAFFFFABRRRQAUUUUAFFFFABRRRQAUUUUAFFFFABRRRQAUUUUAFFFFABRRRQAUUUUAFFFFABRRRQAUUUUAFFFFABRRRQAUUUUAFFFFABRRRQAUUUUAFFFFABRRRQAUUUUAFFFFABRRRQAUUUUAFFFFABRRRQAUUUUAFFFFABRRRQAUUUUAFFFFABRRRQAUUUUAFFFFABRRRQAUUUUAFFFFABRRRQAUUUUAFFFFABRRRQAUUUUAFFFFABRRRQAUUUUAFFFFABRRRQAUUUUAFFFFABRRRQAUUUUAFFFFABRRRQAUUUUAf/9k=" vertex="1" parent="1">
          <mxGeometry x="350" y="400" width="40" height="34.4" as="geometry" />
        </mxCell>
        <mxCell id="rJ81UgAGEvQx7qFqxQZ4-60" value="" style="rounded=0;whiteSpace=wrap;html=1;fillColor=none;" vertex="1" parent="1">
          <mxGeometry x="560" y="60" width="420" height="30" as="geometry" />
        </mxCell>
        <mxCell id="rJ81UgAGEvQx7qFqxQZ4-61" value="Göndeilicek Video Konumu Seç" style="text;html=1;strokeColor=none;fillColor=none;align=center;verticalAlign=middle;whiteSpace=wrap;rounded=0;" vertex="1" parent="1">
          <mxGeometry x="570" y="65" width="400" height="20" as="geometry" />
        </mxCell>
      </root>
    </mxGraphModel>
  </diagram>
</mxfile>
